<?xml version="1.0" encoding="UTF-8"?>
<svg width="24" height="24" viewBox="0 0 24 24" fill="none" xmlns="http://www.w3.org/2000/svg">
  <path d="M12 21.35L10.55 20.03C5.4 15.36 2 12.28 2 8.5C2 5.42 4.42 3 7.5 3C9.24 3 10.91 3.81 12 5.09C13.09 3.81 14.76 3 16.5 3C19.58 3 22 5.42 22 8.5C22 12.28 18.6 15.36 13.45 20.04L12 21.35Z" fill="#0077B6"/>
  <path d="M12 18.35L11.55 17.93C7.4 14.16 5 11.78 5 9C5 6.92 6.92 5 9 5C10.24 5 11.41 5.61 12 6.59C12.59 5.61 13.76 5 15 5C17.08 5 19 6.92 19 9C19 11.78 16.6 14.16 12.45 17.94L12 18.35Z" fill="#00B4D8"/>
</svg>
