<?xml version="1.0" encoding="UTF-8"?>
<svg width="24" height="24" viewBox="0 0 24 24" fill="none" xmlns="http://www.w3.org/2000/svg">
  <path d="M4 6C4 4.34 5.34 3 7 3C8.66 3 10 4.34 10 6C10 7.66 11.34 9 13 9C14.66 9 16 7.66 16 6C16 4.34 17.34 3 19 3C20.66 3 22 4.34 22 6C22 13.18 16.18 19 9 19C6.24 19 4 16.76 4 14V6Z" fill="#0077B6"/>
  <path d="M6 6C6 5.45 6.45 5 7 5C7.55 5 8 5.45 8 6C8 8.76 10.24 11 13 11C15.76 11 18 8.76 18 6C18 5.45 18.45 5 19 5C19.55 5 20 5.45 20 6C20 12.08 15.08 17 9 17C7.34 17 6 15.66 6 14V6Z" fill="#00B4D8"/>
</svg>
