<?xml version="1.0" encoding="UTF-8"?>
<svg width="24" height="24" viewBox="0 0 24 24" fill="none" xmlns="http://www.w3.org/2000/svg">
  <path d="M12 3C7.5 3 4 6.5 4 11C4 15.5 7.5 19 12 19C16.5 19 20 15.5 20 11C20 6.5 16.5 3 12 3ZM12 17C8.7 17 6 14.3 6 11C6 7.7 8.7 5 12 5C15.3 5 18 7.7 18 11C18 14.3 15.3 17 12 17Z" fill="#0077B6"/>
  <path d="M12 7C9.8 7 8 8.8 8 11C8 13.2 9.8 15 12 15C14.2 15 16 13.2 16 11C16 8.8 14.2 7 12 7ZM12 13C10.9 13 10 12.1 10 11C10 9.9 10.9 9 12 9C13.1 9 14 9.9 14 11C14 12.1 13.1 13 12 13Z" fill="#00B4D8"/>
</svg>
