<?xml version="1.0" encoding="UTF-8"?>
<svg width="24" height="24" viewBox="0 0 24 24" fill="none" xmlns="http://www.w3.org/2000/svg">
  <path d="M12 2C8.13 2 5 5.13 5 9C5 12.87 8.13 16 12 16C15.87 16 19 12.87 19 9C19 5.13 15.87 2 12 2ZM12 14C9.24 14 7 11.76 7 9C7 6.24 9.24 4 12 4C14.76 4 17 6.24 17 9C17 11.76 14.76 14 12 14Z" fill="#0077B6"/>
  <path d="M12 6C10.34 6 9 7.34 9 9C9 10.66 10.34 12 12 12C13.66 12 15 10.66 15 9C15 7.34 13.66 6 12 6ZM12 10C11.45 10 11 9.55 11 9C11 8.45 11.45 8 12 8C12.55 8 13 8.45 13 9C13 9.55 12.55 10 12 10Z" fill="#00B4D8"/>
  <path d="M7 18V22H17V18H7Z" fill="#0077B6"/>
</svg>
